<svg height="24" width="24" xmlns="http://www.w3.org/2000/svg">
    <path
        d="M8.85 17.93H4.72a2.19 2.19 0 01-.13-.72c0-1.2 2.2-3.84 2.2-3.84S8.97 16 8.97 17.21c0 .26-.06.5-.13.72m-2.07-6.15c-.47 0-.92.21-1.22.58C4.61 13.5 3 15.66 3 17.2a3.79 3.79 0 007.56 0c0-1.55-1.6-3.7-2.56-4.85-.3-.37-.75-.58-1.22-.58m-.04-2.8c.1 0 .2-.03.3-.07l10.53-4.38a.8.8 0 00-.61-1.47L6.44 7.45a.8.8 0 00.3 1.52m12.55 4.6h-4.15a2.17 2.17 0 01-.11-.69c0-1.2 2.19-3.84 2.19-3.84s2.2 2.63 2.2 3.84c0 .24-.06.47-.13.69m-.85-5.55a1.59 1.59 0 00-2.44 0c-.96 1.15-2.56 3.3-2.56 4.86a3.79 3.79 0 007.56 0c0-1.55-1.6-3.7-2.56-4.86"
        fill="currentColor"
    />
</svg>